<svg width="370" height="294" viewBox="0 0 370 294" fill="none" xmlns="http://www.w3.org/2000/svg">
<path d="M60.7392 128.931C60.6362 128.941 60.5259 128.844 60.4228 128.844C59.8044 128.844 58.8918 128.632 58.6486 128.931C58.3177 129.327 58.2368 130.273 58.5089 130.698C58.781 131.132 59.5983 131.422 60.2017 131.441C60.8789 131.461 61.5637 131.431 62.2553 131.383L62.9252 130.611C63.4848 129.973 64.0512 129.317 64.618 128.69C63.3302 128.776 62.0347 128.854 60.7464 128.941L60.7392 128.931ZM65.6265 204.171C65.6265 204.171 65.6559 204.181 65.6636 204.181C65.8105 204.229 65.98 204.191 66.0388 203.988C65.8991 204.045 65.7662 204.103 65.6265 204.171ZM68.3206 123.437C65.9357 124.181 63.5214 124.779 61.1221 125.446C61.0706 125.639 61.0113 125.841 60.9598 126.034C61.5344 126.556 62.1084 127.068 62.6748 127.589C62.8371 127.589 62.9989 127.579 63.1607 127.579C62.1965 125.639 63.558 125.32 64.6474 125.484C65.406 125.6 66.1346 125.899 66.8339 126.247C67.2312 125.813 67.6435 125.378 68.0408 124.953C68.7329 124.219 69.4394 123.505 70.1459 122.781C69.5424 123.041 68.939 123.254 68.3206 123.447V123.437ZM47.9465 178.943C46.997 179.127 46.0402 179.339 45.0906 179.542C45.1274 179.706 45.1569 179.879 45.1863 180.044C46.6731 179.822 48.1453 179.58 49.6321 179.348C49.7425 179.097 49.8456 178.856 49.9412 178.605C49.2714 178.721 48.609 178.818 47.9465 178.943ZM50.1768 176.587C50.0516 176.742 49.8823 176.868 49.4113 177.311C49.7793 177.273 50.1179 177.244 50.427 177.215C50.5816 176.751 50.7288 176.278 50.8539 175.805C50.6331 176.066 50.4049 176.336 50.1768 176.597V176.587ZM49.4113 167.251C49.0285 167.338 48.7267 167.84 48.3808 168.149C48.7635 168.371 49.1168 168.757 49.529 168.786C50.1989 168.844 50.9055 168.69 51.9432 168.584C51.4428 169.993 51.1484 171.084 50.6626 172.098C50.5227 172.378 49.6836 172.726 49.4922 172.59C48.6237 172.03 47.8729 172.426 47.0633 172.726C45.812 173.199 44.4797 173.517 43.302 174.135C42.2495 174.676 41.0129 175.245 40.7332 176.79C42.8604 176.674 44.7962 176.577 46.7173 176.443C46.8939 176.433 47.0633 176.192 47.2473 176.095C48.0054 175.68 48.7341 175.139 49.5511 174.897C50.0222 174.763 50.5522 174.849 51.0895 174.927C51.4943 173.363 51.818 171.75 52.0834 170.118C52.2746 168.941 52.4436 167.744 52.591 166.546C51.5237 166.759 50.4638 166.971 49.4039 167.232L49.4113 167.251ZM53.2459 159.981C53.2903 159.576 53.3268 159.16 53.349 158.754C53.0769 158.871 52.8193 159.006 52.6131 159.17C50.6552 160.782 50.5374 160.811 49.0654 158.871C48.8887 158.639 48.6605 158.436 48.3955 158.147C48.2262 158.446 48.0717 158.629 48.0349 158.822C47.895 159.556 48.0643 160.637 47.63 160.937C46.9896 161.4 45.9445 161.332 45.0685 161.477C40.2842 162.308 35.4262 162.858 31.4294 165.233C32.0183 165.233 33.0194 165.33 33.9909 165.204C37.2002 164.779 40.4019 164.142 43.6112 163.833C45.5102 163.65 47.7773 162.945 48.8887 165.301C48.9034 165.349 49.08 165.31 49.3745 165.32C49.8308 164.364 47.5343 162.134 50.7068 162.163C50.7656 162.414 50.7803 162.559 50.8245 162.704C50.9938 163.225 51.1704 163.736 51.3397 164.248C51.8695 164.026 52.3848 163.785 52.9074 163.563C52.9666 163.022 53.0182 162.481 53.0697 161.941C52.5029 161.796 51.9288 161.555 51.3471 161.236C51.7077 160.743 52.2302 160.367 52.7971 160.155C52.9445 160.097 53.0913 160.039 53.2315 159.991L53.2459 159.981ZM50.7582 157.316C50.7803 157.413 50.8098 157.519 50.8319 157.616C51.7149 157.451 52.5982 157.278 53.4814 157.123C53.4892 156.968 53.5113 156.795 53.5185 156.64C52.5982 156.862 51.6711 157.094 50.7582 157.316ZM52.1493 152.595C51.6268 152.682 51.1263 152.923 50.6184 153.087C50.6626 153.242 50.7068 153.416 50.7509 153.57C51.1999 153.502 51.7149 153.551 52.0834 153.348C52.694 153 53.283 152.778 53.8499 152.711C53.8571 152.576 53.8643 152.441 53.8865 152.296C53.3124 152.392 52.7311 152.499 52.1493 152.595ZM60.7614 161.246C59.9369 161.362 59.1201 161.564 58.2884 161.738C58.2734 161.892 58.2662 162.038 58.244 162.202C59.1124 162.047 59.9662 161.902 60.8351 161.738C60.8052 161.574 60.7835 161.41 60.7536 161.246H60.7614ZM334.375 94.9554C335.31 95.2356 335.736 95.0521 336.2 94.164C336.392 93.8064 337.194 93.5556 337.709 93.5556C337.959 93.5649 338.43 94.3182 338.335 94.6271C338.217 95.0233 337.657 95.5539 337.253 95.5926C335.744 95.776 334.22 95.776 332.704 95.8247C332.675 95.6412 332.645 95.4577 332.616 95.2643C333.197 95.1388 333.874 94.8012 334.368 94.946L334.375 94.9554ZM64.1398 197.21C63.4034 197.432 62.6016 197.442 61.8286 197.596C57.9421 198.33 54.0632 199.093 50.1694 199.836C49.5806 199.952 48.9697 199.961 48.2262 200.039C48.1379 198.774 48.425 197.857 49.6763 197.654C54.4678 196.862 59.2669 196.119 64.0589 195.443C64.3825 195.395 64.7804 196.013 65.1406 196.331C64.8097 196.631 64.515 197.094 64.1249 197.21H64.1398ZM62.8886 257.746C62.8809 257.678 62.8592 257.62 62.8443 257.553C64.1177 257.427 65.391 257.302 66.6716 257.186C66.6716 257.244 66.6793 257.311 66.6793 257.369C65.4204 257.505 64.1542 257.63 62.8886 257.756V257.746ZM72.0964 141.714C74.4004 141.492 76.2699 141.308 78.1395 141.116C76.5348 141.994 74.3339 141.753 73.8407 144.301C73.6645 144.243 73.4805 144.185 73.3038 144.147C72.943 143.403 72.5751 142.66 72.1041 141.714H72.0964ZM73.7083 145.798C73.6567 145.634 73.598 145.46 73.5393 145.296C74.0175 144.997 74.4885 144.494 74.9894 144.436C76.7482 144.243 78.5224 144.215 80.2889 144.118C78.0365 144.282 76.0566 146.146 73.716 145.798H73.7083ZM286.487 41.6896C284.595 42.1048 282.719 42.8965 280.267 42.3269C282.578 40.84 284.831 41.2648 286.841 40.6759C286.73 41.0331 286.664 41.6414 286.487 41.6896ZM302.695 92.4453C300.73 93.2173 298.698 93.5169 296.505 92.5321C297.27 92.059 297.984 91.4699 298.787 91.1323C299.758 90.7266 300.803 90.4564 301.834 90.3017C302.246 90.2342 303.056 90.5531 303.092 90.804C303.181 91.3351 303.004 92.3099 302.688 92.4354L302.695 92.4453ZM68.3206 123.427C65.9357 124.171 63.5214 124.77 61.1221 125.436C61.0706 125.629 61.0113 125.831 60.9598 126.025C61.5344 126.546 62.1084 127.058 62.6748 127.579C62.8371 127.579 62.9989 127.569 63.1607 127.569C62.1965 125.629 63.558 125.31 64.6474 125.474C65.406 125.59 66.1346 125.889 66.8339 126.237C67.2312 125.803 67.6435 125.368 68.0408 124.943C68.7329 124.209 69.4394 123.495 70.1459 122.771C69.5424 123.032 68.939 123.244 68.3206 123.437V123.427ZM60.7392 128.921C60.6362 128.931 60.5259 128.834 60.4228 128.834C59.8044 128.834 58.8918 128.622 58.6486 128.921C58.3177 129.317 58.2368 130.264 58.5089 130.688C58.781 131.122 59.5983 131.412 60.2017 131.431C60.8789 131.451 61.5637 131.422 62.2553 131.374L62.9252 130.601C63.4848 129.964 64.0512 129.307 64.618 128.68C63.3302 128.767 62.0347 128.844 60.7464 128.931L60.7392 128.921Z" fill="#131111"/>
<path d="M36.1623 225.943C42.4335 225.045 48.6899 224.099 54.792 222.399C54.777 222.168 54.7698 221.936 54.7549 221.704C54.1071 221.685 53.4377 221.55 52.8044 221.666C49.3451 222.274 45.9003 222.979 42.4482 223.578C38.4367 224.282 34.4105 224.891 30.3916 225.595C29.9132 225.682 29.3391 226.03 29.0668 226.416C27.9847 227.932 27.9921 227.961 26.7555 226.667C26.5421 226.435 26.2844 226.242 25.9532 225.952C29.052 225.306 32.0772 224.63 35.1171 224.07C36.8027 223.751 38.5177 223.645 40.218 223.394C40.505 223.355 40.9688 223.133 41.0055 222.95C41.2853 221.531 42.4261 221.666 43.4492 221.463C46.9897 220.749 50.5154 219.976 54.0484 219.223C55.2779 218.963 55.3439 218.016 55.3954 217.089C55.4176 216.732 55.4103 216.375 55.4176 215.902C56.2493 216.8 56.978 217.447 57.5226 218.229C57.8318 218.682 58.1333 219.677 57.9349 219.841C56.7646 220.816 56.3889 222.515 54.6446 222.969C48.6826 224.524 42.7132 225.972 36.5966 226.609C36.5009 226.619 36.3905 226.551 36.2948 226.522C36.2506 226.329 36.2065 226.136 36.1549 225.943H36.1623Z" fill="#131111"/>
<path d="M351.863 172.05C351.378 172.426 350.943 173.044 350.406 173.16C346.858 173.913 343.303 174.618 339.733 175.226C338.467 175.438 337.37 175.506 337.65 177.205C337.716 177.62 337.341 178.132 337.076 178.827C336.693 178.422 336.494 178.257 336.377 178.055C335.104 175.96 335.126 176.018 333.006 177.505C332.306 177.997 331.32 178.161 330.437 178.315C329.303 178.518 328.141 178.566 326.529 178.721C327.125 178.451 327.301 178.306 327.478 178.296C330.805 178.181 333.351 176.452 335.707 174.318C335.898 174.145 336.016 173.874 336.23 173.739C336.841 173.333 337.783 172.503 338.055 172.668C339.733 173.642 341.404 172.716 343.046 172.61C345.923 172.417 348.801 172.069 351.672 171.789C351.731 171.876 351.797 171.962 351.856 172.05H351.863Z" fill="#131111"/>
<path d="M48.0717 234.294C47.3136 235.328 46.6732 236.496 45.7237 237.317C45.4587 237.548 43.7732 236.93 43.6333 236.438C43.4345 235.704 43.832 234.603 44.3325 233.889C45.3704 232.431 46.4892 233.705 47.5712 233.831C47.7331 233.985 47.9024 234.14 48.0643 234.285L48.0717 234.294Z" fill="#131111"/>
<path d="M180.532 51.0645C180.591 51.1611 180.826 51.5473 181.121 52.03C178.081 52.8797 175.498 55.1389 172.229 54.6368C172.178 54.492 172.134 54.3472 172.083 54.2023C174.791 53.1982 177.507 52.1941 180.539 51.0645H180.532Z" fill="#131111"/>
<path d="M147.66 56.7414C148.573 57.2825 149.935 57.6682 149.971 58.1899C150.067 59.6378 148.573 59.3095 147.631 59.5416C147.579 59.551 147.52 59.5416 147.469 59.561C146.387 59.6864 145.43 59.3289 145.511 58.2673C145.548 57.813 146.718 57.3886 147.66 56.7514V56.7414Z" fill="#131111"/>
<path d="M316.32 176.993C319.683 176.259 323.142 176.143 326.403 174.705C327.64 174.154 329.119 174.173 330.496 174C326.985 175.013 323.481 176.056 319.963 177.041C318.763 177.379 317.49 177.978 316.363 176.964L316.32 176.993Z" fill="#131111"/>
<path d="M41.1159 166.025C37.4651 166.604 33.8069 167.174 30.156 167.753C30.1266 167.57 30.1045 167.377 30.0751 167.193C31.319 166.894 32.5482 166.479 33.7995 166.314C35.9414 166.034 38.1054 165.899 40.2547 165.745C40.5271 165.725 40.8068 165.948 41.0864 166.054L41.1085 166.025H41.1159Z" fill="#131111"/>
<path d="M55.8813 268.492C55.1599 270.201 52.407 270.78 51.4208 269.631C51.2663 269.448 51.1117 269.042 51.2 268.946C51.4355 268.694 51.8108 268.405 52.12 268.395C53.3274 268.366 54.5271 268.453 55.8813 268.492Z" fill="#131111"/>
<path d="M352.386 170.234C349.515 170.514 346.637 170.804 343.767 171.084C343.752 170.988 343.745 170.881 343.73 170.785C346.594 170.379 349.457 169.973 352.32 169.568C352.342 169.79 352.364 170.012 352.386 170.234Z" fill="#131111"/>
<path d="M311.616 218.547C313.213 218.711 314.516 215.641 316.143 218.016C315.23 218.518 314.31 219.03 313.383 219.551C312.293 220.16 311.616 220.044 311.623 218.557L311.616 218.547Z" fill="#131111"/>
<path d="M316.342 39.247C315.598 39.8842 315.164 40.5407 314.663 40.6083C314.288 40.6566 313.427 39.8745 313.5 39.6235C313.706 38.8994 314.281 38.2526 314.708 37.5767C315.164 38.0401 315.62 38.5132 316.342 39.247Z" fill="#131111"/>
<path d="M224.055 24.0019C223.415 24.7164 222.995 25.1895 222.576 25.6722C222.134 25.2281 221.332 24.8033 221.339 24.3495C221.354 23.7799 222.031 23.2006 222.421 22.6213C222.885 23.0172 223.356 23.413 224.055 24.0019Z" fill="#131111"/>
<path d="M267.74 33.8789C268.432 32.6334 268.94 31.7065 269.764 30.2197C270.302 31.3976 270.655 32.1796 271.015 32.952C269.985 33.2417 268.947 33.5313 267.747 33.8789H267.74Z" fill="#131111"/>
<path d="M350.215 54.9072L350.06 52.1555C350.759 52.1941 351.959 52.0203 352.077 52.3003C352.57 53.4879 351.51 54.0575 350.215 54.9072Z" fill="#131111"/>
<path d="M188.864 253.43C188.157 254.039 187.738 254.608 187.208 254.753C186.936 254.83 186.104 254.077 186.17 253.807C186.325 253.131 186.84 252.513 187.215 251.876C187.672 252.311 188.136 252.735 188.872 253.43H188.864Z" fill="#131111"/>
<path d="M312.132 207C314.259 206.575 316.386 206.15 318.513 205.725C318.543 205.996 318.579 206.256 318.609 206.527C316.467 206.923 314.332 207.319 312.19 207.714C312.168 207.473 312.146 207.241 312.132 207Z" fill="#131111"/>
<path d="M310.644 52.001C310.998 50.91 313.699 49.9542 314.502 50.7459C314.693 50.939 314.811 51.3638 314.715 51.5956C314.627 51.8176 314.207 52.059 313.935 52.0686C312.831 52.0976 311.727 52.03 310.644 52.001Z" fill="#131111"/>
<path d="M342.332 113C344.761 112.402 347.19 111.794 349.619 111.195C349.656 111.34 349.699 111.494 349.737 111.639C347.329 112.344 344.922 113.049 342.523 113.744C342.457 113.493 342.391 113.242 342.332 113Z" fill="#131111"/>
<path d="M143.928 262.419C144.76 263.269 145.342 263.693 145.614 264.263C145.695 264.437 144.804 265.402 144.554 265.344C144.002 265.209 143.413 264.746 143.156 264.254C143.008 263.973 143.501 263.365 143.928 262.419Z" fill="#131111"/>
<path d="M284.588 227.961C285.707 227.314 287.083 226.377 288.585 225.721C289.174 225.46 290.027 225.837 290.757 225.914C290.734 226.068 290.705 226.223 290.683 226.377C288.519 226.938 286.362 227.497 284.581 227.961H284.588Z" fill="#131111"/>
<path d="M42.8016 205.272C43.1107 203.843 43.7437 203.389 44.7374 204.287C45.8267 205.262 46.3199 204.751 46.7469 203.544C47.4166 204.867 46.8352 205.388 45.6059 205.436C44.73 205.465 43.8542 205.34 42.7942 205.272H42.8016Z" fill="#131111"/>
<path d="M255.749 236.641C254.167 236.592 252.584 236.553 250.774 236.496C251.216 235.81 251.635 235.154 252.055 234.497C252.194 234.488 252.334 234.478 252.474 234.468C252.687 236.66 254.424 236.138 255.867 236.168C255.83 236.322 255.786 236.486 255.749 236.641Z" fill="#131111"/>
<path d="M70.7643 218.827C72.5968 218.151 74.3932 217.215 76.4833 218.074C74.6137 218.49 72.7441 218.905 70.8746 219.32C70.838 219.155 70.8009 218.991 70.7643 218.837V218.827Z" fill="#131111"/>
<path d="M240.189 13.4588C240.992 13.5264 241.816 13.5264 242.581 13.7195C242.817 13.7775 242.898 14.3568 243.045 14.7043C242.243 14.8492 241.426 15.1292 240.66 15.0712C240.337 15.0422 240.108 14.2892 239.836 13.8644C239.954 13.7292 240.079 13.594 240.196 13.4685L240.189 13.4588Z" fill="#131111"/>
<path d="M107.214 65.3343C107.251 65.4791 106.956 65.8366 106.677 66.0682C106.515 66.203 106.352 66.2904 106.264 66.2804C105.749 66.1649 105.072 65.7593 104.969 65.3343C104.91 65.1028 105.072 64.7938 105.271 64.475C105.41 64.2628 105.565 64.0406 105.668 63.8378C105.874 63.8284 106.08 63.809 106.286 63.7798C106.618 64.3014 107.103 64.7745 107.221 65.3343H107.214Z" fill="#131111"/>
<path d="M62.7413 216.974C61.9389 217.263 61.2984 217.427 60.7171 217.717C60.1353 217.997 59.6128 218.403 58.9944 218.798C59.672 216.655 60.9748 215.149 62.7485 216.983L62.7413 216.974Z" fill="#131111"/>
<path d="M61.8652 221.367C64.0662 220.787 66.1048 220.256 68.048 219.745C67.5183 220.701 64.8685 221.463 61.8652 221.367Z" fill="#131111"/>
<path d="M208.186 243.129C207.413 244.567 206.095 243.582 205.227 244.017C205.057 243.544 204.888 243.071 204.623 242.337C206.059 242.656 207.016 242.868 208.186 243.119V243.129Z" fill="#131111"/>
<path d="M237.598 244.094C237.988 244.963 238.29 245.629 238.592 246.295C238.055 246.479 237.216 246.971 237.024 246.798C236.23 246.083 236.428 245.224 237.606 244.094H237.598Z" fill="#131111"/>
<path d="M29.5526 169.394C30.2076 170.148 30.7523 170.505 30.8112 170.949C30.8553 171.277 30.3254 171.905 29.9427 172.03C29.6703 172.117 28.9416 171.644 28.8974 171.335C28.8312 170.891 29.1993 170.36 29.5526 169.404V169.394Z" fill="#131111"/>
<path d="M272.782 18.2573C272.296 17.4463 271.832 17.0215 271.825 16.5677C271.825 16.1622 272.326 15.7278 272.605 15.3029C273.025 15.6892 273.672 16.0174 273.783 16.4809C273.871 16.8477 273.29 17.3981 272.775 18.2573H272.782Z" fill="#131111"/>
<path d="M286.73 38.4745C286.126 36.6401 286.31 36.3698 288.246 36.3119C288.806 37.7119 288.188 38.3298 286.73 38.4745Z" fill="#131111"/>
<path d="M217.88 30.4418C219.859 30.0362 219.859 30.9727 219.764 31.8224C219.727 32.1603 219.285 32.4789 219.028 32.8072C218.675 32.0734 218.314 31.3396 217.88 30.4418Z" fill="#131111"/>
<path d="M328.766 211.905C330.208 211.663 331.651 211.413 333.094 211.171L333.16 211.653C331.718 211.914 330.282 212.175 328.84 212.436C328.818 212.262 328.788 212.088 328.766 211.905Z" fill="#131111"/>
<path d="M113.566 264.195C115.156 263.472 116.738 262.747 118.328 262.023L118.534 262.506C116.929 263.201 115.325 263.896 113.728 264.591C113.676 264.466 113.625 264.331 113.573 264.205L113.566 264.195Z" fill="#131111"/>
<path d="M68.1732 159.701C66.9293 159.952 65.6781 160.203 64.4341 160.454C64.4047 160.309 64.3681 160.164 64.3387 160.019C65.5678 159.682 66.7968 159.344 68.0264 159.006C68.0779 159.237 68.1294 159.469 68.1732 159.701Z" fill="#131111"/>
<path d="M262.447 12.7927C262.669 13.2561 262.978 13.6906 263.073 14.183C263.11 14.3471 262.631 14.6367 262.389 14.8684C262.072 14.5499 261.594 14.2795 261.483 13.8933C261.402 13.6037 261.793 13.1692 261.969 12.8023C262.131 12.8023 262.286 12.7927 262.447 12.783V12.7927Z" fill="#131111"/>
<path d="M168.284 258.721C169.962 258.055 169.955 259.213 170.308 260.218C168.91 260.546 168.299 260.092 168.284 258.721Z" fill="#131111"/>
<path d="M342.685 54.4823C343.053 53.9224 343.429 53.3527 343.796 52.7927C344.069 52.9569 344.547 53.092 344.577 53.3045C344.724 54.2796 344.179 54.772 342.685 54.4823Z" fill="#131111"/>
<path d="M320.714 190.954C320.994 191.62 321.281 192.286 321.619 193.078C319.926 193.126 319.889 193.059 320.176 191.214C320.36 191.128 320.537 191.041 320.721 190.954H320.714Z" fill="#131111"/>
<path d="M227.088 244.48C226.587 243.872 226.109 243.554 226.138 243.254C226.167 242.887 226.624 242.539 226.896 242.192C227.198 242.462 227.684 242.694 227.75 243.022C227.816 243.341 227.448 243.756 227.095 244.49L227.088 244.48Z" fill="#131111"/>
<path d="M41.0938 166.054C42.9339 165.349 43.7436 165.561 43.6479 166.759C43.6258 167.029 43.4491 167.444 43.243 167.521C43.0222 167.608 42.6321 167.435 42.4113 167.261C41.9476 166.884 41.5501 166.44 41.1232 166.025L41.0938 166.064V166.054Z" fill="#131111"/>
<path d="M63.3741 143.799C65.3468 143.172 65.2437 144.234 65.4133 144.919C65.4499 145.064 65.0381 145.325 64.8392 145.537C64.4048 145.025 63.9781 144.514 63.3741 143.799Z" fill="#131111"/>
<path d="M84.3888 132.638L84.2559 130.273C84.8598 130.302 85.8899 130.157 85.9858 130.398C86.4053 131.412 85.4998 131.905 84.3888 132.638Z" fill="white"/>
<path d="M77.9412 132.281C78.2576 131.798 78.5812 131.316 78.8976 130.833C79.1331 130.978 79.5381 131.084 79.5675 131.268C79.6927 132.108 79.2217 132.523 77.9412 132.281Z" fill="white"/>
<path d="M116.466 121.226C117.901 120.657 117.901 121.651 118.203 122.511C117.004 122.79 116.48 122.404 116.466 121.226Z" fill="white"/>
<path d="M55.2114 154.506C56.0946 154.342 56.9779 154.169 57.8612 154.014C57.8684 153.86 57.8905 153.686 57.8977 153.532C56.9779 153.754 56.0503 153.985 55.1377 154.207C55.1599 154.304 55.1892 154.41 55.2114 154.506Z" fill="#131111"/>
<path d="M47.9908 160.725C49.8898 160.541 52.1571 159.836 53.2681 162.192C53.283 162.24 53.4598 162.202 53.754 162.211C54.2106 161.255 51.9138 159.025 55.0862 159.054C55.1454 159.305 55.1598 159.45 55.2042 159.594C55.3732 160.116 55.5499 160.628 55.7195 161.14C56.2492 160.917 56.7645 160.676 57.2871 160.454C57.3458 159.913 57.3974 159.373 57.4489 158.832C56.8826 158.687 56.308 158.446 55.7267 158.127C56.0874 157.635 56.61 157.259 57.1768 157.046C57.3242 156.988 57.4711 156.93 57.6112 156.882C57.655 156.476 57.6921 156.061 57.7143 155.655C57.4417 155.771 57.184 155.907 56.9779 156.071C55.0202 157.683 54.9022 157.712 53.4304 155.771C53.2537 155.54 53.0254 155.337 52.7605 155.047C52.591 155.346 52.4364 155.53 52.3998 155.723C52.2601 156.457 52.4292 157.538 51.9947 157.838C51.3545 158.301 50.3093 158.233 49.4334 158.378C44.6491 159.209 39.7911 159.759 35.7943 162.134C36.3832 162.134 37.3842 162.231 38.3558 162.105C41.565 161.68 44.7669 161.043 47.976 160.734L47.9908 160.725Z" fill="#131111"/>
<path d="M55.2263 172.696C55.0053 172.957 54.777 173.227 54.5492 173.488C54.424 173.642 54.2545 173.768 53.7834 174.212C54.1514 174.173 54.4899 174.145 54.7991 174.115C54.9537 173.652 55.1011 173.179 55.2263 172.706V172.696Z" fill="#131111"/>
<path d="M56.4554 150.239C57.0661 149.892 57.6551 149.67 58.2219 149.602C58.2291 149.467 58.2364 149.332 58.2585 149.187C57.6845 149.283 57.1032 149.39 56.5214 149.486C55.9988 149.573 55.4985 149.815 54.9904 149.979C55.0347 150.133 55.079 150.307 55.1233 150.461C55.5722 150.394 56.0875 150.442 56.4554 150.239Z" fill="#131111"/>
<path d="M67.5404 124.461C66.5762 122.52 67.9377 122.202 69.0271 122.366C69.7851 122.481 70.5138 122.781 71.2131 123.129C71.6104 122.694 72.0227 122.259 72.4205 121.835C73.1121 121.101 73.8186 120.386 74.5256 119.662C73.9216 119.923 73.3182 120.135 72.6998 120.328C70.3154 121.072 67.9011 121.671 65.5013 122.337C65.4498 122.53 65.391 122.732 65.3395 122.926C65.9135 123.447 66.4876 123.959 67.0545 124.48C67.2163 124.48 67.3781 124.47 67.5404 124.47V124.461Z" fill="#131111"/>
<path d="M77.529 91.5379H77.5212C77.2636 91.6053 77.0059 91.6827 76.756 91.7595C77.1239 91.7595 77.5212 91.7501 77.9263 91.7407C77.7861 91.6827 77.6614 91.6247 77.529 91.5379Z" fill="#131111"/>
<path d="M65.1334 158.137C64.3089 158.253 63.4921 158.456 62.6604 158.629C62.6455 158.784 62.6382 158.929 62.6161 159.093C63.4849 158.938 64.3388 158.793 65.2071 158.629C65.1777 158.465 65.1556 158.301 65.1262 158.137H65.1334Z" fill="#131111"/>
<path d="M49.463 176.433C49.4998 176.597 49.5292 176.771 49.5587 176.935C51.0455 176.713 52.5174 176.471 54.0046 176.24C54.1149 175.989 54.2179 175.747 54.3138 175.496C53.6439 175.612 52.9812 175.709 52.319 175.834C51.3694 176.018 50.4125 176.23 49.463 176.433Z" fill="#131111"/>
<path d="M64.5742 128.332C65.2514 128.351 65.9357 128.323 66.6278 128.275L67.2977 127.502C67.8568 126.865 68.4237 126.208 68.9905 125.581C67.7022 125.668 66.4067 125.745 65.1189 125.832C65.0159 125.841 64.9051 125.745 64.802 125.745C64.1841 125.745 63.2715 125.532 63.0283 125.832C62.6969 126.228 62.616 127.174 62.8886 127.599C63.1607 128.033 63.978 128.323 64.5814 128.342L64.5742 128.332Z" fill="#131111"/>
<path d="M139.6 182.689H148.764L144.237 164.644L139.6 182.689Z" fill="#131111"/>
<path d="M75.9901 117.142C76.2993 117.132 76.6085 117.21 76.9177 117.297C77.3743 116.843 77.8453 116.409 78.3091 115.964C78.3972 115.887 78.4709 115.81 78.559 115.743C76.741 116.206 74.9306 116.669 73.1049 117.123C73.142 117.258 73.1713 117.393 73.2079 117.529C74.1355 117.384 75.0631 117.191 75.9901 117.132V117.142Z" fill="#131111"/>
<path d="M70.4108 200.889C70.2711 200.947 70.1387 201.004 69.9985 201.072C70.0063 201.072 70.0284 201.082 70.0356 201.082C70.183 201.13 70.352 201.092 70.4108 200.889Z" fill="#131111"/>
<path d="M355.861 130.167C354.771 130.543 353.63 130.737 352.512 131.007C352.467 130.823 352.416 130.64 352.371 130.476C352.636 130.292 352.894 130.089 353.181 129.955C354.249 129.452 355.353 129.018 356.39 128.467C357.76 127.734 357.627 126.469 357.178 125.484C356.707 124.432 355.964 125.339 355.294 125.677C354.999 125.822 354.366 125.725 354.16 125.494C353.645 124.953 353.284 124.267 352.806 123.563C353.873 123.717 354.698 123.959 355.529 123.91C356.059 123.891 356.589 123.457 357.112 123.215C356.655 122.945 356.236 122.501 355.75 122.443C354.506 122.298 354.079 121.825 354.617 120.637C354.779 120.27 354.801 119.855 354.874 119.556C351.989 120.039 349.199 120.512 346.211 121.014C347.499 117.896 350.664 119.015 352.475 117.548C350.605 117.567 348.824 117.741 347.028 117.915C345.784 118.04 344.768 117.896 345.166 116.032C343.119 116.399 341.331 116.727 339.528 117.056C338.629 117.21 337.997 117.007 337.923 115.993C337.842 114.883 338.622 114.97 339.351 114.903C341.294 114.719 343.222 114.516 345.166 114.323C345.158 114.178 345.144 114.024 345.136 113.879C344.098 113.83 343.068 113.792 342.03 113.744C341.956 113.522 341.875 113.29 341.787 113.068C343.193 112.083 344.592 111.098 345.983 110.133C345.762 109.679 345.57 109.283 345.372 108.868C346.483 108.472 347.491 108.125 348.316 107.845C347.705 107.053 347.204 106.416 346.711 105.759C346.807 105.595 346.903 105.412 347.006 105.228C348.47 105.344 349.921 105.44 351.938 105.595C353.196 105.257 355.132 104.746 357.222 104.195C356.744 102.718 355.552 102.728 354.359 102.65C353.174 102.583 352.004 102.313 350.818 102.341C349.943 102.351 349.059 102.65 348.206 102.892C347.646 103.036 346.77 103.597 346.637 103.452C345.946 102.699 345.394 101.801 344.93 100.874C344.879 100.787 345.814 100.285 346.159 99.8699C346.66 99.2808 347.02 98.5955 347.44 97.9584C346.836 97.7649 346.247 97.4754 345.63 97.4173C344.444 97.3018 343.252 97.34 341.868 97.3018C342.678 95.5058 345.144 96.6354 345.269 94.3762C342.111 95.5251 339.181 97.2919 335.759 96.2203C336.274 95.7373 336.841 95.2936 337.459 95.1582C338.6 94.8973 339.792 94.8686 340.941 94.6464C341.5 94.5309 342.384 94.2508 342.494 93.8932C343.053 92.117 344.319 92.4741 345.585 92.5708C346.144 92.6188 346.711 92.5514 347.278 92.5321C347.264 92.3293 347.264 92.1364 347.264 91.9336C346.395 91.9723 345.519 91.9916 344.474 92.0203C344.599 91.0262 344.702 90.1668 344.761 89.6744C341.559 89.9833 338.423 90.3116 335.295 90.5818C334.89 90.6299 334.316 90.5724 334.117 90.321C333.955 90.1182 334.132 89.539 334.316 89.2014C335.163 87.5694 336.466 86.6521 338.387 86.3918C340.219 86.1503 342.023 85.6098 343.833 85.2042C343.826 85.1174 343.811 85.0494 343.797 84.9726C338.997 85.8126 334.206 86.6327 329.407 87.4633C329.348 87.2992 329.281 87.1157 329.223 86.9422C330.54 86.4012 331.843 85.8607 333.153 85.3197C331.195 85.4357 329.355 85.7739 327.508 86.0536C325.631 86.3338 323.746 86.5653 321.87 86.8262C321.597 86.8648 321.251 87.0384 321.052 86.9422C320.633 86.7394 319.978 86.4012 319.978 86.1216C320.007 85.6966 320.478 84.9627 320.839 84.8953C322.385 84.625 323.96 84.5377 325.844 84.3542C324.975 83.0318 324.313 82.0183 323.724 81.1103C323.356 82.0857 323.187 83.5336 322.657 83.7076C321.406 84.084 319.801 85.2909 318.631 83.4855C318.528 83.3313 317.63 83.4468 317.284 83.6883C316.481 84.2675 315.782 85.0014 315.046 85.6772C315.539 86.1503 316.143 86.7201 317.056 87.5888C314.627 87.8203 312.75 88.0911 310.888 88.1293C310.468 88.1392 310.078 87.3186 309.673 86.8742C310.085 86.5847 310.46 86.1309 310.91 86.0442C311.969 85.8414 313.074 85.7933 314.148 85.6966C314.185 85.5032 314.229 85.3103 314.266 85.1174C313.405 84.7985 312.573 84.3161 311.668 84.2001C310.556 84.0553 310.394 83.5048 310.704 82.6648C311.027 81.7961 310.873 80.2703 312.507 80.6859C314.082 81.0816 315.275 80.3477 316.562 79.7199C317.313 79.3535 318.071 78.9959 318.793 78.5709C319.676 78.0498 320.523 77.4707 321.391 76.9009C321.303 76.6787 321.222 76.4566 321.141 76.235C319.014 76.4372 316.872 76.6306 314.744 76.8915C314.472 76.9108 314.134 77.2004 313.972 77.4414C313.155 78.7063 311.926 78.4748 310.439 78.6776C311.079 77.1131 311.609 75.8194 312.308 74.1587C313.059 74.0239 314.406 73.7918 315.76 73.5702C315.738 73.5409 315.731 73.5022 315.716 73.4829C313.552 73.6956 311.388 73.8984 309.084 74.13C309.357 74.8639 309.533 75.3369 309.776 76.0029C309.202 76.1576 308.723 76.2924 308.076 76.4759C308.23 75.6459 308.333 75.0761 308.444 74.4776C306.846 74.3809 305.345 74.2748 303.681 74.1587C304.19 73.2226 304.454 72.7108 304.925 71.8515C303.21 72.2765 301.871 72.6722 300.524 72.9037C300.038 72.9811 299.501 72.6915 298.993 72.5754C299.332 71.9576 299.523 71.1563 300.045 70.7993C300.583 70.4323 301.437 70.5092 302.143 70.3644C303.784 70.0168 305.514 69.8526 306.037 67.7869C306.103 67.5548 307.06 67.2845 307.472 67.4006C308.753 67.7482 309.96 68.2793 311.403 68.8198C311.285 67.3232 310.828 66.57 309.57 66.3677C309.209 66.3097 308.672 65.9621 308.635 65.6626C308.363 63.9439 307.2 64.4269 306.133 64.7552C305.389 64.9674 304.675 65.315 303.6 65.7593C303.851 65.1414 303.888 64.8226 304.006 64.7839C306.574 63.9245 308.863 61.7041 311.859 62.9204C312.051 62.9978 312.323 63.0171 312.514 62.9497C314.384 62.1771 316.253 61.3858 318.123 60.5844C314.95 59.9953 311.948 59.4256 308.606 58.8077C314.744 56.7221 320.854 56.2397 326.33 53.401C324.608 53.3238 322.915 53.3913 321.251 53.6714C317.174 54.3665 313.11 55.1485 309.047 55.8727C307.973 56.0656 306.876 56.1043 305.809 56.3071C303.394 56.7801 301.002 57.3692 298.595 57.823C298.007 57.9291 297.366 57.7069 296.733 57.6395C296.748 57.4466 296.748 57.2532 296.748 57.0603C297.396 56.8282 298.05 56.558 298.713 56.3552C300.266 55.8821 301.863 55.5444 303.365 54.9458C304.638 54.434 305.75 54.0479 306.486 55.2836C306.942 54.8009 307.259 54.1444 307.671 54.0575C310.785 53.4396 313.928 52.9472 317.056 52.3582C317.836 52.2135 318.587 51.8852 319.514 51.5956C316.29 50.997 313.397 50.437 310.49 49.9059C309.474 49.7225 308.444 49.5101 307.413 49.5294C305.824 49.5777 304.241 49.8094 302.482 49.9928C301.989 49.095 301.9 47.2605 299.699 48.2163C299.913 49.0563 300.119 49.8576 300.369 50.8039C297.44 51.2673 294.658 51.6921 291.875 52.1266C291.853 51.9528 291.816 51.7693 291.787 51.6052C292.994 50.8811 294.319 50.5721 295.769 50.6108C297.763 50.6783 298.264 50.1956 298.426 47.975C297.579 47.9267 296.696 47.946 295.857 47.7915C295.467 47.7046 295.151 47.3185 294.805 47.0577C295.136 46.7488 295.445 46.2564 295.835 46.1792C296.461 46.0344 297.146 46.1213 297.801 46.1888C299.803 46.3819 302.644 45.262 303.549 43.6206C300.988 43.7075 298.566 43.5337 296.218 43.9489C293.98 44.3448 293.583 44.422 292.802 42.3558C292.898 42.2883 292.986 42.2014 293.09 42.182C294.061 41.9117 295.099 41.4966 294.864 40.4055C294.775 39.9615 293.686 39.6042 292.994 39.4883C291.772 39.2856 291.588 38.8511 292.331 37.9049C292.553 37.625 292.759 37.3257 293.149 36.8236C292.331 37.1132 291.802 37.316 291.271 37.5188C290.933 35.8967 289.917 35.5492 288.298 36.0222C287.525 36.2443 286.664 36.1381 285.597 36.1768C286.855 34.9602 289.166 35.8678 289.453 33.6279C287.121 33.5892 284.934 35.2113 282.476 34.5161C283.948 32.3727 285.486 30.7314 288.298 30.9342C288.232 30.7893 288.151 30.6445 288.077 30.49C285.442 31.021 282.8 31.5521 279.966 32.1217C279.531 32.0541 278.759 31.7451 278.052 31.8514C276.006 32.1796 273.989 32.6527 271.972 33.1355C270.743 33.4348 270.206 33.232 270.316 31.8514C270.375 31.1369 270.118 30.3066 269.713 29.708C269.19 28.9549 268.388 28.6363 267.932 29.9494C267.6 30.9245 267.328 31.9093 266.997 33.0003C264.597 33.5313 261.969 34.072 259.364 34.6996C254.366 35.8967 249.398 37.1615 244.399 38.3587C243.877 38.4843 243.303 38.4167 242.751 38.4456C241.492 38.5228 240.189 38.4167 238.99 38.7256C236.171 39.4594 233.381 40.309 230.621 41.2552C224.379 43.3696 217.791 43.6303 211.476 45.5806C204.859 47.6177 197.991 48.7763 191.227 50.3115C185.883 51.499 180.525 52.6479 175.188 53.8644C170.227 54.9941 165.303 56.4231 160.313 57.2825C154.822 58.2286 149.294 58.7978 143.906 60.4104C139.615 61.6947 135.309 62.9304 130.952 63.9345C125.623 65.1702 127.749 67.5841 122.413 68.7523C122.435 68.7811 122.487 68.8872 122.553 69.0226C122.038 69.2447 121.567 69.5824 121.022 69.7371C120.463 69.8913 120.617 71.3784 120.419 72.2085C120.382 72.3726 120.419 72.7976 120.315 72.7202C119.741 72.3146 119.962 73.1065 120.33 74.1107C120.117 74.2654 119.925 74.4002 119.734 74.5257C119.786 74.6705 119.837 74.8153 119.889 74.96C120.146 75.028 120.426 75.1728 120.647 75.1435C120.978 75.0954 121.25 74.912 121.552 74.8153C122.583 74.4583 123.613 74.1201 124.644 73.773C124.886 74.3522 125.151 74.9507 125.417 75.5978C123.937 76.1863 122.428 76.7368 120.956 77.3645C120.396 77.5961 119.925 78.0692 119.418 78.4361C119.469 78.5809 119.521 78.7257 119.572 78.8804C120.132 79.0827 120.75 79.4596 121.221 79.4402C121.987 79.4209 122.627 79.0445 123.378 78.9865C123.65 78.9672 124.092 79.4016 124.474 79.7105C124.931 80.0774 125.409 80.5505 125.88 80.9561C126.491 81.4872 127.102 82.0083 127.823 82.6168C127.831 82.9351 127.838 83.0898 127.845 83.2733C127.904 83.3501 127.963 83.4081 128.029 83.4855C128.273 83.8237 128.515 84.1708 128.758 84.509C128.787 84.8759 128.861 85.3103 128.847 85.5905C128.766 86.9803 127.845 86.4111 127.411 86.9709C127.286 87.1257 127.235 87.4247 127.19 87.7529C127.749 87.1157 128.397 86.8262 129.766 88.7477C129.457 89.1141 129.421 90.1088 128.567 89.1047C128.155 88.6123 128.243 89.2688 128.405 90.1281C129.259 89.8579 130.031 89.5877 130.826 89.3555C130.959 89.3169 131.099 89.2975 131.261 89.3362C131.555 90.0314 131.842 90.6979 132.122 91.3445C131.791 91.4893 131.408 91.4893 131.04 91.5473C130.708 91.5954 130.37 91.644 130.031 91.6921C130.083 91.8369 130.134 91.9916 130.179 92.1458C130.687 92.2331 131.194 92.3293 131.82 92.4354C132.107 94.3856 131.688 94.637 131.297 94.9073C130.768 95.2836 130.201 95.5539 129.663 95.8921C129.59 95.9402 129.568 96.1236 129.582 96.3845C130.421 96.2297 130.952 95.2549 132.085 95.9308C132.151 96.1043 132.225 96.2784 132.291 96.4519C131.99 96.674 131.68 96.8863 131.29 97.1664C131.746 97.7942 132.033 98.1032 132.299 98.5762C132.438 98.8271 132.674 99.6671 132.674 99.7445C132.402 99.7925 132.416 100.816 131.658 99.2808C131.577 99.1266 131.415 98.9719 131.371 99.0106C130.93 99.4549 130.502 99.9373 130.142 100.613C130.716 100.913 131.636 102.853 132.019 102.138C132.078 102.032 133.285 101.665 134.808 101.27C133.844 101.665 133.005 102.052 134.19 103.191C136.17 105.103 125.704 104.6 130.385 105.731C138.32 107.652 132.689 107.429 130.385 108.395C127.323 109.679 129.686 112.73 127.198 113.329C122.295 114.506 116.628 117.229 113.647 117.461C112.911 117.509 107.95 116.119 107.162 116.119C104.233 116.119 110.077 117.712 107.39 117.268C106.588 117.152 100.001 117.674 99.2054 117.538C97.461 117.249 97.0781 115.733 95.4075 115.51C93.8321 115.298 92.2351 115.231 90.8809 115.192H90.7557C89.7106 115.192 88.6578 115.588 87.4432 116.467C85.2278 118.05 83.1593 119.739 81.2897 121.477C79.6191 123.041 77.8232 124.828 75.6444 127.116C75.1878 127.589 74.7168 128.091 74.2386 128.612C74.5035 128.979 74.7246 129.356 74.9379 129.742C74.9379 129.829 73.9444 130.37 73.5981 130.823C73.1637 131.374 72.6927 132.069 72.6782 132.687C72.6782 132.996 73.6568 133.363 74.2608 133.517C74.6215 133.604 75.1585 133.16 75.5192 133.256C76.0495 133.401 76.4911 133.806 76.9765 134.096C76.5864 134.396 76.2113 134.714 75.799 134.975C75.4089 135.216 74.9745 135.39 74.5622 135.593C76.7044 135.699 78.6915 134.164 80.9589 135.361C80.6203 135.651 80.4802 135.834 80.3034 135.921C79.0229 136.549 76.8812 135.583 76.5205 137.948C76.5127 138.006 76.3143 138.064 76.2113 138.064C74.3046 138.006 74.2386 139.397 74.1577 140.604C74.084 141.656 74.3932 142.708 74.3267 143.77C74.2974 144.243 73.8413 145.006 73.4435 145.112C71.4564 145.653 69.4101 146.049 67.3859 146.435C66.5098 146.619 65.3911 146.3 65.2659 147.72C65.2514 147.864 64.7511 148.086 64.4563 148.125C64.1471 148.183 63.8379 148.241 63.5287 148.289C63.3891 149.718 67.7538 150.471 63.1536 152.692L63.1314 153.029C63.7647 152.904 64.3903 152.788 65.0231 152.663C65.1484 152.856 65.2736 153.049 65.3911 153.232C64.9494 153.686 64.5521 154.43 64.0368 154.555C63.6833 154.632 63.3447 154.7 62.9917 154.767V154.825C62.9768 154.961 62.9546 155.105 62.9474 155.24C64.9129 154.806 66.8927 154.458 68.8803 154.091C71.2209 153.676 73.5836 153.193 75.9464 153.029C77.3151 152.923 78.7064 153.406 80.0901 153.618C80.0607 153.802 80.0385 153.966 80.0092 154.14C79.7958 154.285 79.5748 154.555 79.3542 154.564C76.9544 154.613 74.7833 155.231 73.0534 157.036C72.9137 157.181 72.6411 157.21 72.4206 157.258C71.1616 157.538 69.8811 157.732 68.6443 158.089C67.8718 158.301 66.7824 158.591 66.4805 159.141C65.5312 160.869 65.0082 161.226 63.3669 161.757C63.1536 163.833 65.5678 166.295 63.9188 166.295C61.0634 166.295 60.5625 173.401 59.9297 175.516C60.8202 175.545 61.7622 175.767 62.7707 176.433C61.3355 177.108 60.1431 177.698 59.0171 178.238C58.6636 178.402 58.3322 178.557 57.9864 178.73C58.2663 178.779 58.5533 178.779 58.8254 178.75C59.1717 178.721 59.4953 178.654 59.8339 178.576C61.8508 178.113 63.8456 177.601 65.877 177.186C66.8778 176.974 67.7317 177.196 67.8569 178.393C66.0538 178.866 64.2795 179.136 62.6826 179.841C61.8508 180.218 61.3649 181.366 60.6728 182.129C60.2977 182.544 59.8632 183.056 59.3778 183.201C58.443 183.471 57.4711 183.645 56.3379 183.867C55.9329 183.945 55.5134 184.021 55.0718 184.109C55.4104 184.176 55.7634 184.224 56.1096 184.234C59.1938 184.437 62.1229 183.085 65.1262 184.755C64.228 185.161 63.6689 185.334 63.1979 185.643C62.6238 186.03 62.057 186.455 61.6225 186.956C60.982 187.729 60.4672 188.588 59.7236 189.67C59.1861 188.762 58.914 188.308 58.5239 187.632C57.096 189.776 56.1756 192.199 53.482 192.672C53.1136 191.678 52.7384 190.693 52.3705 189.718C52.2009 189.708 52.0242 189.708 51.8479 189.699C51.3841 190.346 50.7437 190.954 50.5008 191.678C49.9782 193.251 48.8741 193.734 47.3358 193.899C45.2748 194.101 43.0372 193.918 41.8153 195.829C40.7113 195.337 39.7986 194.941 38.8858 194.536C38.6209 195.298 38.3559 196.061 37.9805 197.181C41.6166 196.641 44.8037 196.138 47.9982 195.743C48.4692 195.685 48.9845 196.206 49.4703 196.467C49.1391 196.95 48.8741 197.519 48.4325 197.896C48.0497 198.214 47.4609 198.32 47.1885 198.446C48.3368 198.706 49.4777 198.987 50.6185 199.228C50.994 199.296 51.3914 199.257 51.767 199.315C52.5545 199.421 53.3419 199.546 54.1221 199.701C54.8657 199.855 55.5794 200.164 56.3379 200.194C58.4724 200.232 60.629 200.174 62.9253 200.155C63.0139 200.425 63.102 200.898 63.3154 201.304C63.9853 202.607 65.3102 203.119 66.4217 202.597C67.6064 202.057 68.8138 201.574 70.0063 201.062C69.5203 200.879 69.0715 200.676 68.5928 200.473C69.0493 200.097 69.476 199.682 69.9769 199.382C70.5804 199.015 71.2503 198.755 71.8831 198.456C72.5381 198.147 73.1637 197.78 73.8413 197.557C74.8714 197.22 75.1806 197.76 74.9967 198.639C74.923 199.045 74.673 199.412 74.5107 199.769C76.0196 199.624 77.5068 199.479 78.9785 199.334C78.758 199.093 78.5446 199.064 78.3308 199.083C77.0502 199.209 76.925 198.301 77.1461 197.529C77.2419 197.22 78.2792 196.911 78.8389 196.959C79.3686 196.998 80.0901 197.384 80.3034 197.828C80.9074 199.064 81.2897 200.406 81.8128 201.874C79.4279 202.308 77.1682 202.656 74.9451 203.148C74.0619 203.351 73.2301 203.891 72.3912 204.306C71.6332 204.683 70.9339 205.282 70.1387 205.455C67.9084 205.986 65.6415 206.334 63.404 206.807C62.9546 206.904 62.5645 207.241 62.1379 207.463C62.1894 207.589 62.2409 207.705 62.3069 207.83C62.7047 207.744 63.1463 207.705 63.5143 207.531C65.4648 206.604 67.1725 206.537 68.3794 208.477C68.6886 208.97 68.9756 209.5 69.2627 210.003C68.7257 210.225 68.2027 210.476 67.6435 210.631C65.7296 211.113 63.8163 211.557 61.9024 212.02C61.9317 212.204 61.9761 212.397 62.0199 212.581C65.4426 211.876 68.8726 211.171 72.2953 210.447C72.553 213.44 69.4688 212.233 68.1589 213.642C70.5953 213.237 72.7591 212.89 74.9157 212.513C75.7403 212.368 76.9028 212.378 77.2934 211.886C78.4122 210.456 79.8474 210.717 81.2166 210.65C83.6968 210.514 86.0596 210.833 88.1868 212.445C87.5978 212.754 87.1855 213.044 86.7295 213.218C85.3159 213.72 83.5128 213.826 82.5415 214.763C81.0398 216.201 79.2805 216.23 77.5877 216.674C75.917 217.089 74.1134 217.118 73.3332 219.078C73.2301 219.339 72.8251 219.494 72.5458 219.677C69.189 221.85 65.3617 222.535 61.5638 223.307C61.1 223.404 60.629 223.471 60.1209 223.558C60.3713 224.9 61.0485 225.402 62.3218 225.364C62.7191 225.354 63.4478 225.895 63.4256 226.174C63.3447 227.323 63.0283 228.472 62.7413 229.853C61.7993 229.39 61.0413 229.023 60.0694 228.55C59.0315 229.284 57.7953 230.809 56.7352 230.741C54.2545 230.606 53.9453 232.904 52.3334 233.686C54.6817 233.821 56.9852 233.754 59.282 233.638C59.4953 233.638 59.8488 233.348 59.8854 233.165C60.2533 231.311 61.7921 232.064 62.8516 231.842C62.9474 231.813 63.4478 232.721 63.3231 233.049C63.102 233.648 62.5501 234.149 61.8653 235.047C63.7204 234.864 65.1705 234.719 66.6206 234.584C66.6351 234.777 66.6644 234.97 66.6794 235.164C63.6246 236.756 60.1724 236.563 56.8971 237.278C57.2578 237.49 57.6185 237.587 57.9643 237.558C60.4523 237.268 62.933 236.911 65.4205 236.669C67.2756 236.486 69.1818 236.254 71.1987 237.944C69.0859 238.63 67.3859 239.189 65.6931 239.749C65.7446 239.913 65.8033 240.068 65.8549 240.222C67.1504 239.933 68.4603 239.634 69.7558 239.334C71.2796 238.996 72.8034 238.581 74.3417 238.369C74.7684 238.311 75.2543 238.89 75.7181 239.16C75.4161 239.585 75.1956 240.184 74.7833 240.396C74.0469 240.763 73.208 240.976 72.3835 241.13C69.1524 241.748 65.9064 242.308 62.3955 242.936C63.1386 243.718 63.8456 244.278 64.5965 243.515C66.1125 241.96 67.8126 242.636 69.491 242.617C67.5333 245.33 64.7067 245.755 61.7034 245.841C62.3661 246.035 63.0356 246.208 63.7204 246.189C66.179 246.17 68.6227 244.857 71.0885 245.774C71.5888 245.967 72.0011 246.353 72.4649 246.643C72.1042 247.126 71.7656 247.608 71.4049 248.091C71.309 248.217 71.1915 248.313 71.0663 248.429C71.3456 248.564 71.5667 248.69 72.0083 248.921C70.3521 250.07 68.9463 251.036 67.5554 252.02C66.4954 252.764 65.4797 253.594 64.3975 254.299C63.4993 254.898 62.5795 255.641 61.5638 255.883C58.7445 256.587 55.837 256.935 53.0255 257.669C51.2736 258.113 49.6249 258.991 47.9246 259.677C47.9688 259.851 48.0129 260.005 48.0571 260.17C50.4787 259.928 52.9152 259.803 55.3145 259.426C62.3806 258.315 69.4245 257.09 76.4911 255.979C76.8956 255.912 77.3522 256.317 77.7789 256.51C77.4475 256.993 77.1461 257.485 76.7704 257.939C76.6529 258.065 76.3437 258.045 76.1226 258.084C71.2431 258.953 66.3552 259.812 61.4679 260.681C60.2018 260.913 58.9212 261.048 57.67 261.328C56.8162 261.521 56.0066 261.898 55.1821 262.207C55.2264 262.351 55.263 262.506 55.3073 262.66C56.2127 262.573 57.1104 262.487 58.1261 262.381C58.3472 263.462 58.811 264.253 60.2389 263.394C60.4816 263.249 61.0191 263.587 61.4314 263.664C63.4406 264.07 65.2143 265.286 67.4596 264.861C70.6025 264.263 73.782 264.099 76.9543 263.336C82.0261 262.12 87.2742 261.753 92.4485 261.048C93.0597 260.961 93.6853 261.01 94.2738 260.874C95.2013 260.662 96.1949 260.507 96.9972 260.044C98.7637 259.04 100.516 259.001 102.466 259.127C105.175 259.31 107.965 259.194 110.695 258.856C111.733 258.721 112.381 258.373 113.617 258.837C115.023 259.368 117.563 258.953 118.733 257.958C120.456 256.491 122.104 256.81 123.863 256.607C125.902 256.356 127.934 256.114 129.958 255.747C131.209 255.535 132.423 255.033 133.675 254.792C135.927 254.376 138.187 254.087 140.587 253.71C140.484 252.339 141.3 252.291 142.486 252.465C143.369 252.581 144.326 252.339 145.253 252.214C146.608 252.05 148.043 251.104 149.22 252.552C149.383 252.754 150.045 252.59 150.471 252.581C151.546 252.552 152.629 252.455 153.696 252.523C154.645 252.581 155.58 252.812 156.552 252.986C156.706 249.684 156.706 249.703 160.224 249.298C160.917 249.221 161.608 248.921 162.285 248.68C164.53 247.869 166.731 246.749 169.028 246.286C172.921 245.504 176.874 245.098 180.819 244.635C181.769 244.528 182.748 244.809 183.984 244.943C185.081 243.737 186.914 244.21 188.585 244.055C189.954 243.93 191.323 243.978 191.153 241.786C200.612 240.184 209.997 238.784 219.293 236.862C221.759 236.351 224.636 237.847 226.779 235.337C227.043 235.028 227.846 235.125 228.398 235.028C232.196 234.372 235.994 233.724 239.785 233.068C241.11 232.836 242.42 232.537 243.744 232.335C247.057 231.804 250.377 231.34 253.681 230.789C255.212 230.539 256.699 229.419 258.26 230.558C258.414 230.664 258.826 230.568 259.062 230.452C260.468 229.815 261.991 229.921 263.5 229.187C266.025 227.951 268.954 227.575 271.692 226.764C272.583 226.503 273.518 226.184 274.261 225.653C275.998 224.408 277.794 224.06 279.804 224.504C280.334 224.62 281.077 224.64 281.497 224.369C283.19 223.278 284.993 222.969 286.936 222.93C287.584 222.921 288.254 222.525 288.901 222.255C289.689 221.946 290.447 221.521 291.242 221.231C294.356 220.073 297.859 221.975 300.84 219.687C300.885 219.658 300.951 219.667 301.002 219.658C303.417 219.088 305.867 218.682 308.201 217.91C309.621 217.447 310.865 216.433 312.161 215.631C313.25 214.946 314.303 214.231 315.348 213.488C315.981 213.034 316.548 212.503 317.416 211.799C313.773 212.61 310.564 213.314 307.362 214.019C307.31 213.826 307.259 213.624 307.207 213.421C309.18 212.378 311.005 210.988 313.419 210.978C313.883 210.978 314.59 210.949 314.781 210.679C316.003 208.951 317.858 209.037 319.588 208.854C320.721 208.738 321.678 209.047 321.568 210.659C322.399 208.574 324.387 208.873 325.852 208.169C326.625 207.811 327.309 207.261 328.03 206.788C327.957 206.662 327.876 206.537 327.802 206.411C327.037 206.498 326.264 206.643 325.506 206.614C324.895 206.604 324.298 206.401 323.702 206.247C322.399 205.919 320.876 204.943 319.845 205.33C316.901 206.459 313.986 207.405 310.866 207.878C308.812 208.178 308.326 208.062 308.415 205.996C309.445 205.967 310.49 205.996 311.498 205.861C311.749 205.832 312.065 205.262 312.124 204.915C312.161 204.77 311.661 204.422 311.351 204.364C309.011 204.007 309.011 204.027 309.717 201.729C309.776 201.535 309.747 201.323 309.776 200.956C309.151 201.092 308.613 201.217 308.09 201.313C306.221 201.661 304.359 202.047 302.482 202.308C302.033 202.366 301.54 201.941 301.069 201.757C301.429 201.323 301.724 200.647 302.173 200.502C303.277 200.155 304.469 200.097 305.603 199.807C306.398 199.595 307.156 199.189 307.929 198.861C307.862 198.648 307.789 198.436 307.723 198.233C305.566 198.436 303.417 198.687 301.26 198.851C299.928 198.939 298.993 198.542 299.655 196.756C297.867 197.084 296.292 197.751 294.694 197.645H294.672C293.958 199.025 293.075 200.28 292 201.362C288.776 204.606 284.242 206.228 278.383 206.228C274.608 206.228 271.317 205.504 268.513 204.055C265.708 202.617 263.125 200.319 260.755 197.152L268.542 186.937C270.161 188.955 271.869 190.49 273.651 191.562C275.439 192.624 277.345 193.155 279.385 193.155C281.085 193.155 282.373 192.808 283.241 192.132C284.117 191.446 284.552 190.51 284.552 189.312C284.552 188.115 284.176 187.12 283.433 186.329C282.682 185.537 281.696 184.833 280.474 184.205C279.244 183.578 277.897 182.94 276.426 182.284C274.946 181.627 273.489 180.845 272.031 179.918C270.581 178.991 269.242 177.862 268.012 176.52C266.791 175.188 265.804 173.527 265.053 171.538C264.31 169.549 263.935 167.116 263.935 164.229C263.935 160.464 264.619 157.229 265.988 154.506C267.357 151.774 269.293 149.698 271.781 148.25C274.276 146.812 277.206 146.088 280.569 146.088C283.933 146.088 286.973 146.783 289.814 148.173C292.663 149.563 295.018 151.533 296.888 154.091L289.042 164.306C287.665 162.568 286.296 161.274 284.927 160.425C283.558 159.585 282.064 159.16 280.444 159.16C279.156 159.16 278.126 159.43 277.36 159.981C276.587 160.522 276.205 161.342 276.205 162.423C276.205 163.572 276.58 164.509 277.323 165.243C278.074 165.986 279.06 166.653 280.29 167.251C281.512 167.85 282.858 168.477 284.338 169.124C285.81 169.781 287.275 170.563 288.725 171.461C290.182 172.359 291.522 173.498 292.744 174.888C293.973 176.278 294.959 178.006 295.703 180.073C296.454 182.148 296.821 184.649 296.821 187.594C296.821 190.365 296.461 192.827 295.761 195.009C297.675 194.719 299.589 194.43 301.518 194.14C301.488 193.937 301.466 193.744 301.437 193.541C300.215 193.773 298.985 194.053 297.749 194.169C297.373 194.207 296.726 193.899 296.623 193.599C296.512 193.271 296.799 192.605 297.116 192.402C298.146 191.745 299.229 190.983 300.377 190.713C304.41 189.737 308.496 189.052 312.529 188.096C314.892 187.536 316.783 187.468 317.438 190.182C317.446 190.22 317.483 190.288 317.527 190.316C318.101 190.597 318.889 191.253 319.227 191.07C319.765 190.78 320.324 189.911 320.316 189.322C320.279 188.086 319.897 186.88 319.617 185.489C321.965 185.045 324.262 184.62 326.566 184.166C327.154 184.051 328.023 184.021 328.273 183.645C329.127 182.371 330.445 182.399 331.674 182.148C333.749 181.733 335.84 181.386 337.93 180.98C338.284 180.903 338.6 180.662 338.931 180.507C338.394 180.179 337.886 180.082 337.577 180.285C335.95 181.328 334.581 181.106 333.337 179.87C332.918 179.445 332.498 179.039 332.064 178.624C332.675 178.315 333.249 177.862 333.897 177.678C335.582 177.225 337.305 176.858 339.012 176.452C336.325 176.635 333.713 177.186 331.085 177.649C330.445 177.746 329.738 177.533 329.068 177.466C329.23 176.906 329.407 176.346 329.679 175.438C324.453 176.887 319.345 178.924 313.979 176.829C315.76 174.714 318.418 174.724 320.699 173.884C320.699 173.884 320.736 173.865 320.743 173.855C320.743 173.865 320.751 173.865 320.751 173.865C321.752 173.449 322.724 172.976 323.739 172.619C324.975 172.175 326.632 172.165 327.405 171.345C329.414 169.23 331.777 168.13 334.537 167.599C336.399 167.232 338.261 166.826 340.109 166.353C340.617 166.228 341.059 165.803 341.905 165.282C341.132 165.127 340.838 165.05 340.528 165.001C337.724 164.625 337.768 164.634 338.894 161.98C339.255 161.12 339.689 160.898 340.558 161.11C341.044 161.217 341.647 161.304 342.118 161.13C343.693 160.58 345.291 159.991 346.792 159.237C347.69 158.793 348.412 158.002 349.206 157.355C349.111 157.2 349.008 157.046 348.905 156.892C346.925 156.959 344.937 157.026 342.95 157.114C342.707 157.114 342.332 157.278 342.251 157.461C341.463 159.363 339.91 158.793 338.578 158.938C338.475 158.812 338.387 158.687 338.291 158.562C338.828 157.896 339.38 157.239 340.05 156.418C338.512 156.486 337.172 156.534 335.832 156.602C335.788 156.428 335.759 156.244 335.715 156.061C336.488 155.81 337.253 155.472 338.04 155.308C339.962 154.951 341.905 154.69 343.833 154.362C344.187 154.294 344.511 154.072 344.849 153.918C344.805 153.792 344.768 153.667 344.724 153.532C342.089 153.947 339.454 154.42 336.819 154.758C335.612 154.912 334.375 154.912 333.182 154.797C332.711 154.748 332.314 154.188 331.887 153.86C332.344 153.522 332.756 153.049 333.256 152.875C334.213 152.556 335.214 152.402 336.201 152.19C336.186 152.035 336.156 151.861 336.141 151.707C335.582 151.784 335.008 151.823 334.471 151.968C332.351 152.499 330.253 153.145 328.118 153.58C327.647 153.667 327.044 153.039 326.507 152.74C326.941 152.305 327.309 151.639 327.839 151.456C328.781 151.137 329.812 151.07 330.805 150.944C332.093 150.77 333.013 150.307 333.094 148.868C333.175 147.748 333.823 147.381 335.015 147.362C336.245 147.343 337.474 146.908 338.703 146.667C335.597 145.807 332.24 147.835 329.259 146.059C329.922 144.301 333.16 145.112 332.469 142.631C334.751 141.627 336.995 140.652 339.387 139.6C338.931 138.373 339.976 138.084 341.007 137.881C343.635 137.341 346.277 136.848 348.912 136.375C351.82 135.844 354.285 134.434 356.56 132.658C356.95 132.349 357.2 131.76 357.303 131.248C357.568 130.012 357.097 129.752 355.861 130.167ZM338.755 91.8468C339.689 92.1264 340.116 91.943 340.58 91.0549C340.772 90.6979 341.573 90.4464 342.089 90.4464C342.339 90.4564 342.81 91.2096 342.714 91.5185C342.597 91.9142 342.037 92.4354 341.633 92.484C340.124 92.6675 338.607 92.6675 337.084 92.7255C337.062 92.542 337.025 92.3486 337.003 92.1557C337.584 92.0397 338.261 91.702 338.755 91.8468ZM127.22 81.1202C126.94 80.85 126.535 80.6179 126.44 80.2896C126.366 80.0387 126.704 79.6718 126.859 79.3535C126.991 79.3535 127.132 79.3435 127.264 79.3435C127.455 79.7392 127.72 80.1161 127.801 80.5311C127.831 80.6759 127.426 80.9268 127.22 81.1202ZM68.5196 194.111C67.7832 194.333 66.9808 194.343 66.2084 194.488C62.3218 195.221 58.443 195.994 54.5565 196.737C53.9602 196.843 53.3491 196.853 52.6132 196.93C52.5251 195.675 52.8121 194.748 54.0633 194.545C58.8548 193.763 63.6539 193.02 68.4531 192.344C68.7773 192.296 69.1674 192.914 69.5276 193.232C69.1967 193.532 68.902 193.995 68.5196 194.111ZM67.2679 254.647C67.2534 254.579 67.2385 254.521 67.2241 254.454C68.4902 254.338 69.7708 254.212 71.0514 254.087C71.0514 254.145 71.0586 254.212 71.0586 254.27C69.8002 254.406 68.534 254.521 67.2679 254.647ZM122.583 119.402C121.383 119.691 120.86 119.295 120.846 118.127C122.281 117.548 122.281 118.552 122.583 119.402ZM90.3656 127.299C90.785 128.323 89.8796 128.815 88.7681 129.539C88.7165 128.593 88.6727 127.888 88.6356 127.183C89.2396 127.212 90.2697 127.058 90.3656 127.299ZM83.2701 127.724C83.5056 127.869 83.9179 127.975 83.9395 128.159C84.0725 128.999 83.601 129.414 82.3204 129.172C82.6368 128.69 82.9532 128.207 83.2701 127.724ZM76.4761 138.615C78.7724 138.393 80.6497 138.209 82.5193 138.016C80.9146 138.895 78.7137 138.663 78.2205 141.202C78.0365 141.144 77.8598 141.086 77.6758 141.048C77.3151 140.304 76.9471 139.561 76.4761 138.615ZM78.0881 142.699C78.0365 142.535 77.9778 142.361 77.919 142.197C78.3973 141.888 78.8683 141.395 79.3686 141.337C81.1279 141.144 82.9017 141.116 84.661 141.019C82.4162 141.192 80.4286 143.046 78.0881 142.699ZM118.571 191.186C116.643 196.09 113.941 199.827 110.474 202.385C107.008 204.943 102.967 206.228 98.3592 206.228C94.9143 206.228 91.727 205.474 88.798 203.978C85.8684 202.481 83.3139 200.367 81.1351 197.645C78.9569 194.922 77.2635 191.736 76.0567 188.086C74.857 184.437 74.253 180.459 74.253 176.153C74.253 171.847 74.8864 167.792 76.1525 164.142C77.4181 160.493 79.1847 157.326 81.4443 154.622C83.7118 151.929 86.3394 149.834 89.3277 148.337C92.3161 146.831 95.5177 146.088 98.9183 146.088C103.033 146.088 106.713 147.014 109.974 148.868C113.235 150.712 115.885 153.223 117.923 156.38L109.51 167.415C107.972 165.069 106.375 163.331 104.711 162.182C103.055 161.043 101.061 160.464 98.7344 160.464C96.5334 160.464 94.5391 161.11 92.7505 162.385C90.969 163.669 89.5483 165.474 88.4888 167.821C87.4288 170.167 86.8985 172.918 86.8985 176.076C86.8985 179.233 87.3844 181.994 88.3636 184.369C89.3349 186.735 90.6969 188.579 92.4413 189.882C94.1856 191.186 96.217 191.842 98.5432 191.842C100.869 191.842 102.68 191.272 104.218 190.123C105.749 188.984 106.927 187.353 107.737 185.228C107.832 184.977 107.898 184.697 107.986 184.437L96.8648 184.002V170.929H121.471V173.382C121.471 180.353 120.507 186.29 118.571 191.186ZM154.425 205.243L151.966 195.443H136.325L133.808 205.243H121.096L137.981 147.063H150.685L167.379 205.243H154.425ZM218.027 205.243H205.691V177.92L198.463 191.514H190.491L183.263 177.823V205.243H170.934V147.063H179.965L194.503 174.994L208.988 147.063H218.027V205.243ZM259.261 205.243H225.373V147.063H258.885V160.628H237.834V168.97H256.957V182.206H237.834V191.678H259.261V205.243ZM290.867 38.5904C288.975 39.0056 287.098 39.7973 284.64 39.2277C286.951 37.7408 289.211 38.1753 291.22 37.5767C291.102 37.9339 291.036 38.5422 290.867 38.5904ZM307.068 89.3462C305.102 90.1182 303.071 90.4177 300.885 89.4329C301.643 88.9599 302.357 88.3807 303.166 88.0425C304.138 87.6369 305.183 87.3666 306.214 87.2025C306.626 87.1351 307.428 87.4539 307.472 87.7142C307.561 88.2453 307.391 89.2207 307.068 89.3462Z" fill="#131111"/>
<path d="M56.4626 167.029C56.6543 165.851 56.8233 164.654 56.9707 163.457C55.9035 163.669 54.8435 163.882 53.7834 164.142C53.4006 164.229 53.0991 164.731 52.7528 165.04C53.1357 165.262 53.4892 165.649 53.9015 165.677C54.5709 165.735 55.2779 165.581 56.3152 165.474C55.8148 166.884 55.5206 167.975 55.0346 168.989C54.895 169.269 54.0555 169.616 53.8644 169.482C52.996 168.921 52.2452 169.317 51.4354 169.616C50.1841 170.089 48.8519 170.408 47.6742 171.026C46.6216 171.567 45.3851 172.136 45.1053 173.681C47.2325 173.566 49.1684 173.469 51.0895 173.333C51.2662 173.324 51.4354 173.083 51.6196 172.986C52.3776 172.571 53.1063 172.03 53.9231 171.789C54.3946 171.653 54.9244 171.741 55.4618 171.818C55.8664 170.254 56.1905 168.642 56.4554 167.01L56.4626 167.029Z" fill="#131111"/>
<path d="M150.104 76.0416H146.342V122.511H150.104V76.0416Z" fill="#00A99D"/>
<path d="M174.975 91.8468C173.533 90.6786 171.883 90.0894 170.029 90.0894C168.174 90.0894 166.466 90.6299 165.009 91.7114C163.735 92.6575 162.705 93.9225 161.895 95.4771V90.7653H158.289V122.511H161.895V103.799C161.895 101.994 162.204 100.401 162.823 99.0006C163.441 97.6008 164.28 96.5005 165.347 95.6893C166.414 94.8786 167.644 94.4729 169.057 94.4729C171.118 94.4729 172.774 95.3417 174.026 97.0697C175.277 98.8078 175.902 101.067 175.902 103.857V122.501H179.561V103.046C179.561 100.71 179.156 98.5469 178.353 96.558C177.544 94.579 176.425 93.0051 174.982 91.8275L174.975 91.8468Z" fill="#00A99D"/>
<path d="M203.755 90.7653H193.2V84.8179C193.2 82.887 193.582 81.3424 194.355 80.1935C195.128 79.0445 196.218 78.4748 197.623 78.4748C198.308 78.4748 198.933 78.6196 199.5 78.9092C200.067 79.1987 200.589 79.6624 201.068 80.2896L203.49 77.1131C202.702 76.1283 201.833 75.3563 200.891 74.8153C199.949 74.2748 198.875 74.0045 197.675 74.0045C196.063 74.0045 194.642 74.4677 193.428 75.385C192.206 76.3118 191.257 77.5674 190.572 79.17C189.887 80.7726 189.542 82.6068 189.542 84.6731V90.7554H183.462V95.0134H189.542V122.501H193.2V95.0134H203.755V122.501H207.413V90.7554H203.755V90.7653Z" fill="#00A99D"/>
<path d="M205.558 80.2316C204.837 80.2316 204.248 80.5505 203.784 81.1783C203.321 81.8055 203.092 82.5974 203.092 83.5435C203.092 84.4896 203.321 85.2235 203.784 85.8701C204.248 86.5172 204.837 86.8455 205.558 86.8455C206.28 86.8455 206.876 86.5172 207.361 85.8701C207.84 85.2136 208.083 84.4415 208.083 83.5435C208.083 82.6455 207.84 81.8154 207.361 81.1783C206.883 80.5505 206.28 80.2316 205.558 80.2316Z" fill="#00A99D"/>
<path d="M231.408 91.8468C229.966 90.6786 228.317 90.0894 226.462 90.0894C224.607 90.0894 222.9 90.6299 221.442 91.7114C220.169 92.6575 219.138 93.9225 218.329 95.4771V90.7653H214.722V122.511H218.329V103.799C218.329 101.994 218.638 100.401 219.256 99.0006C219.874 97.6008 220.713 96.5005 221.781 95.6893C222.848 94.8786 224.077 94.4729 225.49 94.4729C227.552 94.4729 229.208 95.3417 230.459 97.0697C231.71 98.8078 232.336 101.067 232.336 103.857V122.501H235.994V103.046C235.994 100.71 235.589 98.5469 234.787 96.558C233.977 94.579 232.858 93.0051 231.416 91.8275L231.408 91.8468Z" fill="#00A99D"/>
<path d="M244.54 77.2579C243.855 77.2579 243.266 77.5768 242.788 78.2046C242.309 78.8318 242.067 79.6237 242.067 80.5698C242.067 81.5159 242.309 82.2498 242.788 82.8964C243.266 83.5529 243.855 83.8718 244.54 83.8718C245.29 83.8718 245.901 83.5435 246.365 82.8964C246.829 82.2498 247.057 81.4678 247.057 80.5698C247.057 79.6718 246.829 78.8417 246.365 78.2046C245.901 77.5768 245.29 77.2579 244.54 77.2579Z" fill="#00A99D"/>
<path d="M246.394 90.7653H242.736V122.511H246.394V90.7653Z" fill="#00A99D"/>
<path d="M261.064 77.3933H257.464V90.7653H251.333V95.0233H257.464V122.511H261.064V95.0233H267.144V90.7653H261.064V77.3933Z" fill="#00A99D"/>
<path d="M289.594 90.7653L281.349 115.115L273.525 90.7653H269.566L279.355 120.203L273.577 135.892H277.544L282.233 122.646L293.613 90.7653H289.594Z" fill="#00A99D"/>
<path d="M35.6913 162.568C35.9416 162.954 36.1919 163.341 36.4421 163.718C36.6555 164.046 36.8764 164.374 37.134 164.664C36.6409 163.688 36.1108 162.732 35.6692 161.729C34.7786 159.711 33.8733 157.693 33.0783 155.607C31.3191 150.992 29.582 146.368 27.9112 141.695C26.1668 136.8 24.5916 131.808 23.2005 126.72C21.537 120.657 20.0722 114.516 19.2111 108.163C18.5928 103.596 18.2174 99.0106 18.74 94.3856C19.0638 91.5572 19.6969 88.8438 21.1174 86.6139C22.3025 84.7505 23.7746 83.312 25.4086 82.163C27.1089 80.9561 28.9564 80.3189 30.8407 79.8166C33.7187 79.0445 36.5231 77.9531 39.1949 76.3311C41.2927 75.0568 43.2874 73.5315 45.157 71.7741C47.424 69.6598 49.669 67.478 51.7964 65.1221C55.1749 61.3952 57.854 56.8768 59.9813 51.7983C60.9897 49.3942 62.1229 47.1157 63.7127 45.262C66.2743 42.269 69.1746 40.589 72.6782 40.9366C75.5929 41.2262 78.3163 42.3945 80.9661 43.9006C84.2193 45.7447 87.2592 48.1005 90.2182 50.6397C94.0089 53.8837 97.5935 57.4947 101.031 61.3565C103.379 63.9925 105.727 66.628 108.001 69.3602C110.173 71.9576 112.292 74.6511 114.383 77.3546C116.422 79.9907 118.439 82.6554 120.22 85.6098C122.34 89.124 124.239 92.8123 125.225 97.1664C125.704 99.2908 125.902 101.463 125.49 103.664C125.063 105.943 124.025 107.584 122.487 108.762C119.786 110.828 116.834 111.465 113.772 111.552C110.651 111.649 107.574 111.089 104.505 110.452C102.15 109.959 99.8016 109.409 97.4389 108.984C95.9006 108.704 94.3475 108.55 92.802 108.433C90.7778 108.279 88.8933 108.955 87.0825 110.143C84.8743 111.601 82.7327 113.193 80.6791 114.97C78.743 116.64 76.859 118.417 74.9967 120.222C73.311 121.864 71.6625 123.582 70.0285 125.33C67.9749 127.531 66.0316 129.887 64.2873 132.523C63.3447 133.942 62.7264 135.583 62.2847 137.389C61.3577 141.222 60.9897 145.17 60.5625 149.119C60.0915 153.454 59.6499 157.789 58.8331 162.038C58.222 165.252 57.383 168.361 56.021 171.18C55.2187 172.841 54.3132 174.386 53.1136 175.641C51.3398 177.495 49.404 177.823 47.2842 177.051C45.2306 176.298 43.545 174.734 42.0361 172.822C41.3295 171.924 40.7038 170.901 40.0193 169.897C40.3137 170.563 40.5861 171.2 40.8658 171.828C39.136 168.738 37.4063 165.649 35.6766 162.568H35.6913ZM51.9948 124.432C58.5018 118.339 59.9369 106.976 55.6603 98.4894C51.1117 89.4617 41.9184 87.2124 35.2129 93.4975C28.6326 99.6671 27.2561 111.05 31.5253 119.488C36.339 129.008 45.9372 130.418 52.002 124.432H51.9948ZM73.5615 70.6639C75.615 68.723 76.0567 65.315 74.6138 62.6795C73.2229 60.1401 70.433 59.5803 68.4681 61.4532C66.5171 63.3067 65.9801 66.995 67.305 69.4089C68.8211 72.1698 71.4342 72.6915 73.5615 70.6733V70.6639ZM88.209 65.5178C86.8176 62.9398 84.0354 62.2639 82.1215 64.0312C80.1195 65.8847 79.6634 69.4763 81.0836 72.1123C82.5487 74.8153 85.2644 75.4911 87.2448 73.647C89.2468 71.7841 89.6663 68.2307 88.209 65.5178ZM65.3983 87.3766C66.7747 90.1281 69.7852 90.4757 71.4781 88.8344C73.5393 86.8356 73.9222 83.4081 72.3763 80.6472C70.9261 78.0598 68.1589 77.4607 66.245 79.3048C64.3239 81.1589 63.941 84.7892 65.406 87.3666L65.3983 87.3766ZM78.9564 90.2055C80.3771 92.7636 83.1671 93.266 85.1763 91.3445C87.1268 89.4716 87.6272 85.9381 86.2729 83.5048C84.7713 80.8014 82.0921 80.2316 80.0679 82.1824C77.9922 84.1807 77.514 87.6275 78.9564 90.2055Z" fill="#131111"/>
<path d="M49.5807 119.788C45.1423 123.959 38.7754 122.906 35.3748 116.872C32.0699 111.012 33.0636 102.563 37.5168 98.2767C42.1392 93.8357 48.5649 95.1582 51.8624 101.154C55.0939 107.014 54.0484 115.559 49.5807 119.788Z" fill="#131111"/>
<path d="M43.7216 128.854C43.5377 128.854 43.3536 128.854 43.177 128.844C34.8301 128.458 28.2792 119.237 28.5736 108.289C28.7135 102.988 30.4285 98.0739 33.3874 94.4536C36.3464 90.8327 40.2033 88.9405 44.2443 89.1334C48.2852 89.3169 52.0319 91.5666 54.792 95.4478C57.5521 99.3289 58.9872 104.388 58.8476 109.689C58.7079 114.989 56.9929 119.903 54.034 123.524C51.2073 126.981 47.5639 128.854 43.7216 128.854ZM43.6996 95.8727C41.1602 95.8727 38.7606 97.1084 36.8984 99.3869C34.9479 101.772 33.8143 105.016 33.726 108.521C33.5347 115.743 37.8553 121.835 43.361 122.086C46.0402 122.221 48.5722 120.966 50.5301 118.572C52.4808 116.186 53.614 112.942 53.7026 109.438C53.7985 105.943 52.8487 102.602 51.0233 100.034C49.2053 97.4754 46.7321 95.9982 44.0602 95.8727C43.9424 95.8727 43.8173 95.8727 43.6996 95.8727Z" fill="#00A99D"/>
</svg>
